<?xml version="1.0" encoding="UTF-8"?>
<svg id="_レイヤー_1" xmlns="http://www.w3.org/2000/svg" version="1.1" viewBox="0 0 100 100">
  <!-- Generator: Adobe Illustrator 29.3.1, SVG Export Plug-In . SVG Version: 2.1.0 Build 151)  -->
  <defs>
    <style>
      .st0 {
        fill: #333;
        fill-rule: evenodd;
      }
    </style>
  </defs>
  <path class="st0" d="M88.5,60.7h4.6v-21.8h-4.6v21.8ZM71.3,56.3h0c0-2.8,2.3-4.5,6.3-4.7l4-.2v-1c0-1.4-.9-2.2-2.7-2.2s-2.7.7-2.9,1.7h0c0,.1-4,.1-4,.1v-.2c.3-2.9,2.8-4.9,7.1-4.9s6.9,2.1,6.9,5.2v10.6h-4.4v-2.3h0c-.9,1.6-2.7,2.6-4.8,2.6-3.3,0-5.5-1.9-5.5-4.7ZM78.2,57.9c2,0,3.4-1.2,3.4-2.8v-1.1l-3.3.2c-1.7.1-2.6.8-2.6,1.9h0c0,1.2,1,1.8,2.5,1.8ZM63.3,61.1c-2.8,0-5.1-.7-6.7-2.2-1.6-1.5-2.4-3.4-2.4-5.9s.7-4.5,2.2-6c1.5-1.5,3.5-2.2,6-2.2s4.4.8,5.6,2.4c1.2,1.6,1.8,3.5,1.8,5.7v1.3h-11c.2,1,.7,1.8,1.5,2.4.8.6,1.8.9,3.1.9s1.4,0,2-.3c.6-.2,1.3-.4,2.1-.8l1.3,3c-.8.6-1.7,1-2.8,1.2-1.1.3-2,.4-2.7.4ZM65.7,51.4c-.2-1-.6-1.8-1.2-2.3-.6-.5-1.3-.8-2.2-.8s-1.6.3-2.3.8c-.6.5-1,1.3-1.2,2.3h6.8ZM50.1,60.7l-4.8-8.3c-.2,0-.5,0-.8,0-.3,0-.5,0-.8,0h-2.5v8.3h-4.3v-21.8h7.2c2.5,0,4.6.5,6.4,1.6,1.8,1.1,2.7,2.8,2.7,5.1s-.4,2.5-1.1,3.5c-.7,1-1.7,1.7-2.8,2.3l5.6,9.3h-4.6ZM43.9,42.4h-2.7v6.7h2.8c1.3,0,2.4-.3,3.2-.8.9-.5,1.3-1.3,1.3-2.5s-.4-2.1-1.2-2.6c-.8-.5-1.9-.8-3.4-.8ZM28.3,61.1c-2.8,0-5.1-.7-6.7-2.2-1.6-1.5-2.4-3.4-2.4-5.9s.7-4.5,2.2-6c1.5-1.5,3.5-2.2,6-2.2s4.4.8,5.6,2.4c1.2,1.6,1.8,3.5,1.8,5.7v1.3h-11c.2,1,.7,1.8,1.5,2.4.8.6,1.8.9,3.1.9s1.4,0,2-.3c.6-.2,1.3-.4,2.1-.8l1.3,3c-.8.6-1.7,1-2.8,1.2-1.1.3-2,.4-2.7.4ZM30.7,51.4c-.2-1-.6-1.8-1.2-2.3-.6-.5-1.3-.8-2.2-.8s-1.6.3-2.3.8c-.6.5-1,1.3-1.2,2.3h6.8ZM8.5,38.9c2.2,0,4,.5,5.4,1.4,1.4.9,2.1,2.5,2.1,4.7s-.2,1.5-.6,2.2c-.4.7-.9,1.2-1.5,1.7,1,.5,1.9,1.2,2.5,2.1.7.9,1,2,1,3.3,0,2-.7,3.6-2.2,4.7-1.5,1.1-3.4,1.7-5.9,1.7H0v-21.8h8.5ZM7.9,42.4h-3.6v5.4h3.2c1.2,0,2.2-.2,2.8-.7.7-.4,1-1.1,1-2.1s-.3-1.7-.9-2.1c-.6-.4-1.5-.6-2.6-.6ZM9.4,51.2h-5v6.1h4.7c1.2,0,2.1-.3,2.8-.8.7-.5,1.1-1.2,1.1-2.2s-.3-1.8-1-2.4c-.7-.5-1.5-.8-2.6-.8ZM95.5,60.7h4.5v-4.3h-4.5v4.3Z"/>
</svg>