<?xml version="1.0" encoding="UTF-8"?>
<svg id="_レイヤー_1" data-name="レイヤー_1" xmlns="http://www.w3.org/2000/svg" version="1.1" viewBox="0 0 48 48">
  <!-- Generator: Adobe Illustrator 29.3.1, SVG Export Plug-In . SVG Version: 2.1.0 Build 151)  -->
  <defs>
    <style>
      .st0 {
        fill: #005dff;
      }
    </style>
  </defs>
  <path class="st0" d="M12.93,21.24c-.76.76-.76,2,0,2.77.38.38.88.57,1.38.57s1-.19,1.38-.57l11.07-11.07c.76-.76.76-2,0-2.77-.77-.76-2-.76-2.77,0l-11.07,11.07Z"/>
  <path class="st0" d="M35.07,26.76c.76-.76.76-2,0-2.77-.77-.76-2-.76-2.77,0l-11.07,11.07c-.76.76-.76,2,0,2.77.38.38.88.57,1.38.57s1-.19,1.38-.57l11.07-11.07Z"/>
  <path class="st0" d="M40.6,18.46c-3.81-3.81-10.01-3.81-13.83,0l-8.3,8.3c-2.29,2.29-6.01,2.29-8.29,0-2.29-2.29-2.29-6.01,0-8.29l13.83-13.83c.76-.76.76-2,0-2.77-.77-.76-2-.76-2.77,0L7.4,15.71c-3.81,3.81-3.81,10.01,0,13.83,1.85,1.85,4.3,2.86,6.91,2.86s5.07-1.02,6.91-2.86l8.3-8.3c2.29-2.29,6.01-2.29,8.29,0,2.29,2.29,2.29,6.01,0,8.29l-13.83,13.83c-.76.76-.76,2,0,2.77.38.38.88.57,1.38.57s1-.19,1.38-.57l13.83-13.83c3.81-3.81,3.81-10.01,0-13.83Z"/>
</svg>