<?xml version="1.0" encoding="UTF-8"?>
<svg id="_レイヤー_1" data-name="レイヤー_1" xmlns="http://www.w3.org/2000/svg" version="1.1" viewBox="0 0 241.5 49.1">
  <!-- Generator: Adobe Illustrator 29.3.1, SVG Export Plug-In . SVG Version: 2.1.0 Build 151)  -->
  <defs>
    <style>
      .st0 {
        fill: #005dff;
      }
    </style>
  </defs>
  <g>
    <path class="st0" d="M9.1,21.6c-.8.8-.8,2.2,0,3,.4.4,1,.6,1.5.6s1.1-.2,1.5-.6l12-12c.8-.8.8-2.2,0-3-.8-.8-2.2-.8-3,0l-12,12Z"/>
    <path class="st0" d="M33,27.6c.8-.8.8-2.2,0-3-.8-.8-2.2-.8-3,0l-12,12c-.8.8-.8,2.2,0,3,.4.4,1,.6,1.5.6s1.1-.2,1.5-.6l12-12Z"/>
    <path class="st0" d="M39,18.6c-4.1-4.1-10.8-4.1-15,0l-9,9c-2.5,2.5-6.5,2.5-9,0-2.5-2.5-2.5-6.5,0-9L21.1,3.6c.8-.8.8-2.2,0-3-.8-.8-2.2-.8-3,0L3.1,15.6c-4.1,4.1-4.1,10.8,0,15,2,2,4.7,3.1,7.5,3.1s5.5-1.1,7.5-3.1l9-9c2.5-2.5,6.5-2.5,9,0,2.5,2.5,2.5,6.5,0,9l-15,15c-.8.8-.8,2.2,0,3,.4.4,1,.6,1.5.6s1.1-.2,1.5-.6l15-15c4.1-4.1,4.1-10.8,0-15Z"/>
  </g>
  <g>
    <path d="M54.2,29.2h4.1c0,3.5,2.5,6,5.8,6s5.8-2.5,5.8-5.8V8.1h4v21.3c0,5.5-4.3,9.6-9.9,9.6s-9.9-4.1-9.9-9.9Z"/>
    <path d="M79.5,9.3c0-1.4,1.1-2.5,2.6-2.5s2.5,1.1,2.5,2.5-1.1,2.5-2.5,2.5-2.6-1.1-2.6-2.5ZM80.1,16.1h3.8v22.4h-3.8v-22.4Z"/>
    <path d="M90.5,6.8h3.8v20.8l11.3-11.6h4.8l-9.9,10,10.2,12.4h-4.9l-8-9.7-3.6,3.7v5.9h-3.8V6.8Z"/>
    <path d="M110.3,27.3c0-6.7,5.1-11.7,12-11.7s11.9,5.1,11.9,11.7-5.1,11.8-11.9,11.8-12-5.1-12-11.8ZM130.3,27.3c0-4.6-3.4-8.1-8-8.1s-8.1,3.5-8.1,8.1,3.4,8.1,8.1,8.1,8-3.5,8-8.1Z"/>
    <path d="M164.7,27.3c0-6.7,5.1-11.7,11.9-11.7s11.9,5.1,11.9,11.7,0,1.1,0,1.6h-19.7c.7,4,3.8,6.7,8.1,6.7s5.9-1.5,7.1-3.7h4.2c-1.8,4.3-6.1,7.2-11.4,7.2s-12.1-5.1-12.1-11.8ZM168.8,25.5h15.8c-.7-3.7-3.8-6.5-7.9-6.5s-7.1,2.6-7.8,6.5Z"/>
    <path d="M213.5,32.6v-8c0-5.5-3.7-9.1-9.1-9.1s-6.3,1.4-8.1,3.9v-3.4h-3.8v22.4h3.8v-12.6c0-4,2.7-6.7,6.9-6.7s6.6,2.6,6.6,6.6v7.6c0,3.3,2.5,5.1,5.3,5.1s2.1-.1,2.9-.3c-1-1-1.8-2.1-2.5-3.4-1-.2-1.9-1-1.9-2.2Z"/>
    <path d="M217.6,27.3c0-6.7,5.1-11.7,11.9-11.7s11.9,5.1,11.9,11.7,0,1.1,0,1.6h-19.7c.7,4,3.8,6.7,8.1,6.7s5.9-1.5,7.1-3.7h4.2c-1.8,4.3-6.1,7.2-11.4,7.2s-12.1-5.1-12.1-11.8ZM221.7,25.5h15.8c-.7-3.7-3.8-6.5-7.9-6.5s-7.1,2.6-7.8,6.5Z"/>
    <path d="M156.9,16.1v3.9c-1.9-2.7-5-4.4-8.8-4.4-6.4,0-11.2,4.8-11.2,11.2s4.8,11.3,11.2,11.3,6.9-1.7,8.8-4.4v2.6c0,4.7-3,7.7-7.6,7.7s-5.1-1.1-6.3-2.8c-2-.7-3.9-1.8-5.4-3.3.8,6.6,6.1,9.5,11.6,9.5s11.4-4.5,11.4-11.3v-20h-3.8ZM148.9,34.3c-4.6,0-8.1-3.3-8.1-7.6s3.4-7.6,8.1-7.6,8,3.3,8,7.6-3.4,7.6-8,7.6Z"/>
  </g>
</svg>