<?xml version="1.0" encoding="UTF-8"?>
<svg id="_レイヤー_1" xmlns="http://www.w3.org/2000/svg" version="1.1" viewBox="0 0 100 100">
  <!-- Generator: Adobe Illustrator 29.2.1, SVG Export Plug-In . SVG Version: 2.1.0 Build 116)  -->
  <defs>
    <style>
      .st0 {
        fill: #333;
      }
    </style>
  </defs>
  <path class="st0" d="M98.54,43.41c0-21.81-21.86-39.55-48.74-39.55S1.06,21.6,1.06,43.41c0,19.55,17.34,35.93,40.76,39.02,1.59.34,3.75,1.05,4.29,2.4.49,1.23.32,3.16.16,4.41,0,0-.57,3.44-.7,4.17-.21,1.23-.98,4.82,4.22,2.63s28.07-16.53,38.3-28.3h0c7.06-7.75,10.45-15.61,10.45-24.34h0ZM32.61,55.07c0,.51-.42.93-.93.93h-13.69c-.51,0-.93-.42-.93-.93h0v-21.27c0-.51.42-.93.93-.93h3.46c.51,0,.93.42.93.93v16.88h9.31c.51,0,.93.42.93.93v3.46h-.01ZM40.85,55.07c0,.51-.42.93-.93.93h-3.46c-.51,0-.93-.42-.93-.93v-21.27c0-.51.42-.93.93-.93h3.46c.51,0,.93.42.93.93v21.27ZM64.38,55.07c0,.51-.42.93-.93.93h-3.44c-.08,0-.17,0-.24-.03h0s-.04,0-.06-.02c0,0-.02,0-.03,0-.02,0-.03,0-.05-.02-.02,0-.03,0-.04-.02,0,0-.02,0-.03,0-.02,0-.04-.02-.06-.04h0c-.09-.06-.17-.14-.24-.23l-9.74-13.16v12.63c0,.51-.42.93-.93.93h-3.46c-.51,0-.93-.42-.93-.93v-21.27c0-.51.42-.93.93-.93h3.61s.04,0,.06,0h.03s.04,0,.06.02c0,0,.02,0,.03,0,.02,0,.04.02.05.02s.02,0,.03,0c.02,0,.03.02.05.03,0,0,.02,0,.03.02.02,0,.03.02.05.03,0,0,.02,0,.03.02.02,0,.03.03.05.04l.02.02.06.06h0s.05.06.07.1l9.73,13.14v-12.63c0-.51.42-.93.93-.93h3.46c.51,0,.93.42.93.93v21.27h0ZM83.26,37.26c0,.51-.42.93-.93.93h-9.31v3.59h9.31c.51,0,.93.42.93.93v3.46c0,.51-.42.93-.93.93h-9.31v3.59h9.31c.51,0,.93.42.93.93v3.46c0,.51-.42.93-.93.93h-13.69c-.51,0-.93-.42-.93-.93h0v-21.25h0v-.02c0-.51.42-.93.93-.93h13.69c.51,0,.93.42.93.93v3.46h0Z"/>
</svg>