<?xml version="1.0" encoding="UTF-8"?>
<svg id="_レイヤー_1" xmlns="http://www.w3.org/2000/svg" version="1.1" viewBox="0 0 300 300">
  <!-- Generator: Adobe Illustrator 29.3.1, SVG Export Plug-In . SVG Version: 2.1.0 Build 151)  -->
  <defs>
    <style>
      .st0 {
        fill: #fff;
      }
    </style>
  </defs>
  <path class="st0" d="M81.3,132.9c-4.7,4.7-4.7,12.4,0,17.2,2.4,2.4,5.5,3.5,8.6,3.5s6.2-1.2,8.6-3.5l68.8-68.8c4.7-4.7,4.7-12.4,0-17.2-4.8-4.7-12.4-4.7-17.2,0l-68.8,68.8h0Z"/>
  <path class="st0" d="M218.8,167.1c4.7-4.7,4.7-12.4,0-17.2-4.8-4.7-12.4-4.7-17.2,0l-68.8,68.8c-4.7,4.7-4.7,12.4,0,17.2,2.4,2.4,5.5,3.5,8.6,3.5s6.2-1.2,8.6-3.5l68.8-68.8h0Z"/>
  <path class="st0" d="M253.2,115.6c-23.7-23.7-62.2-23.7-85.9,0l-51.6,51.6c-14.2,14.2-37.3,14.2-51.5,0-14.2-14.2-14.2-37.3,0-51.5L150.1,29.7c4.7-4.7,4.7-12.4,0-17.2-4.8-4.7-12.4-4.7-17.2,0L47,98.5c-23.7,23.7-23.7,62.2,0,85.9,11.5,11.5,26.7,17.8,42.9,17.8s31.5-6.3,42.9-17.8l51.6-51.6c14.2-14.2,37.3-14.2,51.5,0,14.2,14.2,14.2,37.3,0,51.5l-85.9,85.9c-4.7,4.7-4.7,12.4,0,17.2,2.4,2.4,5.5,3.5,8.6,3.5s6.2-1.2,8.6-3.5l85.9-85.9c23.7-23.7,23.7-62.2,0-85.9h.2Z"/>
</svg>