<?xml version="1.0" encoding="UTF-8"?>
<svg id="_レイヤー_1" data-name="レイヤー_1" xmlns="http://www.w3.org/2000/svg" version="1.1" viewBox="0 0 180 52">
  <!-- Generator: Adobe Illustrator 29.3.1, SVG Export Plug-In . SVG Version: 2.1.0 Build 151)  -->
  <path d="M7.6111538,15.2184804c0-4.5039101,4.2304111-7.3697673,9.2798486-7.3697673,5.5273255,0,9.690097,3.4121199,9.690097,7.9152947h6.3463519c0-7.7101705-6.8918793-13.5102597-15.8996994-13.5102597C8.2934307,2.2537482,1.1971624,7.5075747,1.1971624,15.6963684c0,16.0357137,26.2029635,10.985541,26.2029635,21.9034424,0,4.6406595-4.5039101,7.7792805-10.098875,7.7792805-5.9375739,0-10.576763-3.6848836-10.576763-8.5291969H.378136c0,7.9836695,7.2330178,14.1248971,16.8540049,14.1248971,9.2122091,0,16.5819764-5.5273255,16.5819764-14.0572576,0-16.3084774-26.2029635-10.8495267-26.2029635-21.6990534Z"/>
  <path d="M71.4687463,41.0119307v-12.3508301c0-8.5299322-5.6626045-14.1248971-14.1248971-14.1248971-5.4582155,0-9.8253761,2.251955-12.5559543,6.2779771V1.0252085h-5.8684639v49.1305565h5.8684639v-19.5154731c0-6.2779771,4.2318815-10.4407487,10.6458729-10.4407487,6.2096024,0,10.1665146,4.0943968,10.1665146,10.3039992v11.7369279c0,5.1178123,3.4533837,7.9152947,8.1887937,7.9152947,1.4905509,0,2.5984238-.1356467,3.4592654-.314487-1.5721594-1.6691155-2.8997689-3.5840677-3.9382562-5.7007436-1.1496881-.525401-1.841339-1.6329982-1.841339-3.1286037Z"/>
  <path d="M113.537038,41.0119307V15.3552299h-5.8684639v6.2772419c-2.9334968-4.3671606-7.7109057-7.0962683-13.5102597-7.0962683-9.963596,0-17.4010028,7.84692-17.4010028,18.219294,0,10.3716388,7.4374068,18.219294,17.4010028,18.219294,5.8684639,0,10.712042-2.7982177,13.6470092-7.2330178.5455275,4.1620364,3.3437452,6.4139914,8.0520442,6.4139914h1.8424418v-5.6633397h-.6822769c-2.1159408,0-3.4804946-1.3652891-3.4804946-3.4804946ZM95.2493693,45.3107165c-7.1653783,0-12.4868443-5.390576-12.4868443-12.5552191s5.321466-12.5559543,12.4868443-12.5559543c7.0962683,0,12.4192048,5.3913112,12.4192048,12.5559543s-5.3229365,12.5552191-12.4192048,12.5552191Z"/>
  <path d="M144.3302071,14.9864291c-.7541439-.1045839-1.6963184-.1774618-2.9420436-.1774618-5.2226719,0-9.8268465,2.6614682-12.4868443,7.1646431v-6.6183804h-5.8684639v34.8005352h5.8684639v-17.4686423c0-6.5974268,4.0019439-11.0412333,10.7075389-11.7054056,1.241222-2.2533335,2.8456389-4.264139,4.7213491-5.995288Z"/>
  <path d="M179.621864,32.7554975c0-10.372374-7.9152947-18.219294-18.4920577-18.219294-10.507653,0-18.4920577,7.84692-18.4920577,18.219294,0,10.3716388,7.9844047,18.219294,18.6979171,18.219294,8.1873233,0,14.9439236-4.5039101,17.6730313-11.1914004h-6.5507409c-1.9791913,3.4804946-6.2096024,5.8008244-11.0546509,5.8008244-6.5507409,0-11.4634289-4.2311463-12.4868443-10.372374h30.5701241c.0676395-.7506517.135279-1.6373176.135279-2.456344ZM148.9841004,29.958015c1.1601649-5.9368387,5.9361035-10.0312355,12.1457059-10.0312355,6.3463519,0,11.2590399,4.2304111,12.2824553,10.0312355h-24.4281612Z"/>
</svg>