<?xml version="1.0" encoding="UTF-8"?>
<svg id="_レイヤー_1" data-name="レイヤー_1" xmlns="http://www.w3.org/2000/svg" version="1.1" viewBox="0 0 177.62 52.22">
  <!-- Generator: Adobe Illustrator 29.2.1, SVG Export Plug-In . SVG Version: 2.1.0 Build 116)  -->
  <defs>
    <style>
      .st0 {
        fill: #005dff;
      }
    </style>
  </defs>
  <g>
    <path class="st0" d="M10.48,23.12c-.83.83-.83,2.17,0,2.99.41.41.96.62,1.5.62s1.08-.21,1.5-.62l11.98-11.98c.83-.83.83-2.17,0-2.99-.83-.83-2.17-.83-2.99,0l-11.98,11.98Z"/>
    <path class="st0" d="M34.44,29.1c.83-.83.83-2.17,0-2.99-.83-.83-2.17-.83-2.99,0l-11.98,11.98c-.83.83-.83,2.17,0,2.99.41.41.96.62,1.5.62s1.08-.21,1.5-.62l11.98-11.98Z"/>
    <path class="st0" d="M40.42,20.12c-4.13-4.12-10.84-4.12-14.96,0l-8.99,8.99c-2.47,2.47-6.5,2.48-8.98,0-2.48-2.48-2.48-6.5,0-8.98l14.97-14.97c.83-.83.83-2.17,0-2.99-.83-.83-2.17-.83-2.99,0l-14.97,14.97c-4.13,4.13-4.13,10.84,0,14.97,2,2,4.66,3.1,7.48,3.1s5.48-1.1,7.48-3.1l8.99-8.99c2.47-2.48,6.5-2.48,8.98,0,2.48,2.47,2.48,6.5,0,8.98l-14.97,14.97c-.83.83-.83,2.17,0,2.99.41.41.96.62,1.5.62s1.08-.21,1.5-.62l14.97-14.97c4.12-4.13,4.12-10.84,0-14.97Z"/>
  </g>
  <g>
    <path d="M61.98,18.95c0-2.99,2.81-4.89,6.16-4.89,3.67,0,6.44,2.27,6.44,5.26h4.21c0-5.12-4.58-8.97-10.56-8.97s-10.51,3.49-10.51,8.93c0,10.65,17.4,7.3,17.4,14.55,0,3.08-2.99,5.17-6.71,5.17-3.94,0-7.02-2.45-7.02-5.66h-4.21c0,5.3,4.8,9.38,11.19,9.38s11.01-3.67,11.01-9.34c0-10.83-17.4-7.21-17.4-14.41Z"/>
    <path d="M104.39,36.08v-8.2c0-5.67-3.76-9.38-9.38-9.38-3.62,0-6.53,1.5-8.34,4.17v-13.14h-3.9v32.63h3.9v-12.96c0-4.17,2.81-6.93,7.07-6.93s6.75,2.72,6.75,6.84v7.79c0,3.4,2.29,5.26,5.44,5.26.99,0,1.73-.09,2.3-.21-1.04-1.11-1.93-2.38-2.62-3.79-.76-.35-1.22-1.08-1.22-2.08Z"/>
    <path d="M132.33,36.08v-17.04h-3.9v4.17c-1.95-2.9-5.12-4.71-8.97-4.71-6.62,0-11.56,5.21-11.56,12.1s4.94,12.1,11.56,12.1c3.9,0,7.11-1.86,9.06-4.8.36,2.76,2.22,4.26,5.35,4.26h1.22v-3.76h-.45c-1.41,0-2.31-.91-2.31-2.31ZM120.18,38.93c-4.76,0-8.29-3.58-8.29-8.34s3.53-8.34,8.29-8.34,8.25,3.58,8.25,8.34-3.54,8.34-8.25,8.34Z"/>
    <path d="M152.78,18.79c-.5-.07-1.13-.12-1.95-.12-3.47,0-6.53,1.77-8.29,4.76v-4.4h-3.9v23.11h3.9v-11.6c0-4.38,2.66-7.33,7.11-7.77.82-1.5,1.89-2.83,3.14-3.98Z"/>
    <path d="M176.22,30.6c0-6.89-5.26-12.1-12.28-12.1s-12.28,5.21-12.28,12.1,5.3,12.1,12.42,12.1c5.44,0,9.92-2.99,11.74-7.43h-4.35c-1.31,2.31-4.12,3.85-7.34,3.85-4.35,0-7.61-2.81-8.29-6.89h20.3c.04-.5.09-1.09.09-1.63ZM155.87,28.74c.77-3.94,3.94-6.66,8.07-6.66s7.48,2.81,8.16,6.66h-16.22Z"/>
  </g>
</svg>