<?xml version="1.0" encoding="UTF-8"?>
<svg id="_レイヤー_1" xmlns="http://www.w3.org/2000/svg" version="1.1" viewBox="0 0 100 100">
  <!-- Generator: Adobe Illustrator 29.2.1, SVG Export Plug-In . SVG Version: 2.1.0 Build 116)  -->
  <defs>
    <style>
      .st0 {
        fill: #333;
      }
    </style>
  </defs>
  <path class="st0" d="M15.03,89.12c0,1.22.99,2.2,2.2,2.2h13.24c1.22,0,2.2-.99,2.2-2.2v-12.04c5.61,3.44,12.2,5.42,19.26,5.42,20.39,0,36.91-16.53,36.91-36.91S72.33,8.67,51.94,8.67c-8.67,0-16.64,3-22.94,8l-4.5-6.99c-.41-.63-1.1-1.01-1.85-1.01h-5.42c-1.22,0-2.2.99-2.2,2.2v78.24h0ZM51.94,64.85c-10.64,0-19.26-8.62-19.26-19.26s8.62-19.26,19.26-19.26,19.26,8.62,19.26,19.26-8.62,19.26-19.26,19.26Z"/>
</svg>