<?xml version="1.0" encoding="UTF-8"?>
<svg id="_レイヤー_1" data-name="レイヤー_1" xmlns="http://www.w3.org/2000/svg" width="70" height="88" version="1.1" viewBox="0 0 70 88">
  <!-- Generator: Adobe Illustrator 29.4.0, SVG Export Plug-In . SVG Version: 2.1.0 Build 152)  -->
  <path d="M54.5,8.9H15.5C6.9,8.9,0,15.9,0,24.5v39c0,8.6,7,15.6,15.6,15.6h39c8.6,0,15.6-7,15.6-15.6V24.5c0-8.6-7-15.6-15.6-15.6ZM64.7,63.5c0,5.6-4.6,10.2-10.2,10.2H15.5c-5.6,0-10.2-4.6-10.2-10.2V24.5c0-5.6,4.6-10.2,10.2-10.2h39c5.6,0,10.2,4.6,10.2,10.2v39Z"/>
  <path d="M50.2,41.3h-12.5v-12.5c0-1.5-1.2-2.7-2.7-2.7s-2.7,1.2-2.7,2.7v12.5h-12.5c-1.5,0-2.7,1.2-2.7,2.7s1.2,2.7,2.7,2.7h12.5v12.5c0,1.5,1.2,2.7,2.7,2.7s2.7-1.2,2.7-2.7v-12.5h12.5c1.5,0,2.7-1.2,2.7-2.7s-1.2-2.7-2.7-2.7Z"/>
</svg>