<?xml version="1.0" encoding="UTF-8"?>
<svg id="_レイヤー_1" data-name="レイヤー_1" xmlns="http://www.w3.org/2000/svg" width="70" height="88" version="1.1" viewBox="0 0 70 88">
  <!-- Generator: Adobe Illustrator 29.4.0, SVG Export Plug-In . SVG Version: 2.1.0 Build 152)  -->
  <path d="M51.1,4.1h-31.7c-4.7,0-8.5,3.8-8.5,8.5v10.1h6.9v-3.8h35v49.5H17.7v-4h-6.9v10.8c0,4.7,3.8,8.5,8.5,8.5h31.7c4.7,0,8.5-3.8,8.5-8.5V12.7c0-4.7-3.8-8.5-8.5-8.5Z" fill="#444746"/>
  <polygon points="23.7 54.2 30.6 54.2 30.6 30.2 6.9 30.2 6.9 37.1 18.8 37.1 0 55.9 4.9 60.8 23.7 42 23.7 54.2" fill="#444746"/>
</svg>