<?xml version="1.0" encoding="UTF-8"?>
<svg id="_レイヤー_1" data-name="レイヤー_1" xmlns="http://www.w3.org/2000/svg" width="70" height="88" version="1.1" viewBox="0 0 70 88">
  <!-- Generator: Adobe Illustrator 29.4.0, SVG Export Plug-In . SVG Version: 2.1.0 Build 152)  -->
  <path d="M23.7,17.8l8.4-7.9v44.2c0,1.6,1.3,2.9,2.9,2.9s2.9-1.3,2.9-2.9V9.7l8.4,8.1c.6.5,1.3.8,2,.8s1.5-.3,2.1-.9c1.1-1.1,1.1-3,0-4.1L37.1,1c-1.1-1.1-2.9-1.1-4,0l-13.3,12.6c-1.2,1.1-1.2,2.9-.1,4.1,1.1,1.1,2.9,1.2,4.1.1Z" fill="#0079fe"/>
  <path d="M59.2,25h-14.3v5.7h14.3c2.8,0,5.1,2.3,5.1,5.1v41.3c0,2.8-2.3,5.1-5.1,5.1H10.8c-2.8,0-5.1-2.3-5.1-5.1v-41.3c0-2.8,2.3-5.1,5.1-5.1h14.3v-5.7h-14.3c-6,0-10.8,4.9-10.8,10.8v41.3c0,6,4.9,10.8,10.8,10.8h48.3c6,0,10.8-4.9,10.8-10.8v-41.3c0-6-4.9-10.8-10.8-10.8Z" fill="#0079fe"/>
</svg>